<svg width="433" height="282" viewBox="0 0 433 282" fill="none" xmlns="http://www.w3.org/2000/svg">
<rect x="0.5" y="0.5" width="432" height="281" rx="4.5" fill="white"/>
<rect x="110" y="16" width="40" height="40" rx="20" fill="white"/>
<path d="M137.326 36.5062C137.53 36.3318 137.631 36.2446 137.669 36.1409C137.701 36.0498 137.701 35.9502 137.669 35.8591C137.631 35.7554 137.53 35.6682 137.326 35.4938L130.267 29.4433C129.917 29.1431 129.742 28.9931 129.594 28.9894C129.465 28.9862 129.342 29.0428 129.26 29.1427C129.167 29.2576 129.167 29.4883 129.167 29.9495V33.5289C127.388 33.8401 125.76 34.7415 124.55 36.0949C123.231 37.5704 122.501 39.48 122.5 41.4591V41.9691C123.374 40.9157 124.466 40.0638 125.701 39.4716C126.789 38.9495 127.965 38.6403 129.167 38.5588V42.0505C129.167 42.5117 129.167 42.7424 129.26 42.8573C129.342 42.9572 129.465 43.0138 129.594 43.0106C129.742 43.0069 129.917 42.8569 130.267 42.5567L137.326 36.5062Z" stroke="#98A2B3" stroke-width="1.66667" stroke-linecap="round" stroke-linejoin="round"/>
<rect x="110" y="16" width="40" height="40" rx="20" stroke="#D0D5DD" stroke-linecap="round" stroke-linejoin="round" stroke-dasharray="1 3"/>
<rect x="285" y="16" width="40" height="40" rx="20" fill="#F2F4F7"/>
<path d="M312.326 36.5062C312.53 36.3318 312.631 36.2446 312.669 36.1409C312.701 36.0498 312.701 35.9502 312.669 35.8591C312.631 35.7554 312.53 35.6682 312.326 35.4938L305.267 29.4433C304.917 29.1431 304.742 28.9931 304.594 28.9894C304.465 28.9862 304.342 29.0428 304.26 29.1427C304.167 29.2576 304.167 29.4883 304.167 29.9495V33.5289C302.388 33.8401 300.76 34.7415 299.55 36.0949C298.231 37.5704 297.501 39.48 297.5 41.4591V41.9691C298.374 40.9157 299.466 40.0638 300.701 39.4716C301.789 38.9495 302.965 38.6403 304.167 38.5588V42.0505C304.167 42.5117 304.167 42.7424 304.26 42.8573C304.342 42.9572 304.465 43.0138 304.594 43.0106C304.742 43.0069 304.917 42.8569 305.267 42.5567L312.326 36.5062Z" stroke="#667085" stroke-width="1.66667" stroke-linecap="round" stroke-linejoin="round"/>
<rect x="285" y="16" width="40" height="40" rx="20" stroke="#D0D5DD" stroke-linecap="round" stroke-linejoin="round"/>
<rect x="199" y="16" width="40" height="40" rx="20" fill="white"/>
<path d="M219 36.8334C219.46 36.8334 219.833 36.4603 219.833 36.0001C219.833 35.5398 219.46 35.1667 219 35.1667C218.54 35.1667 218.167 35.5398 218.167 36.0001C218.167 36.4603 218.54 36.8334 219 36.8334Z" stroke="#98A2B3" stroke-width="1.66667" stroke-linecap="round" stroke-linejoin="round"/>
<path d="M224.833 36.8334C225.294 36.8334 225.667 36.4603 225.667 36.0001C225.667 35.5398 225.294 35.1667 224.833 35.1667C224.373 35.1667 224 35.5398 224 36.0001C224 36.4603 224.373 36.8334 224.833 36.8334Z" stroke="#98A2B3" stroke-width="1.66667" stroke-linecap="round" stroke-linejoin="round"/>
<path d="M213.167 36.8334C213.627 36.8334 214 36.4603 214 36.0001C214 35.5398 213.627 35.1667 213.167 35.1667C212.706 35.1667 212.333 35.5398 212.333 36.0001C212.333 36.4603 212.706 36.8334 213.167 36.8334Z" stroke="#98A2B3" stroke-width="1.66667" stroke-linecap="round" stroke-linejoin="round"/>
<rect x="199" y="16" width="40" height="40" rx="20" stroke="#D0D5DD" stroke-linecap="round" stroke-linejoin="round" stroke-dasharray="1 3"/>
<g filter="url(#filter0_d_1102_4864)">
<rect x="110" y="170" width="40" height="40" rx="20" fill="white"/>
<path d="M137.326 190.506C137.53 190.332 137.631 190.245 137.669 190.141C137.701 190.05 137.701 189.95 137.669 189.859C137.631 189.755 137.53 189.668 137.326 189.494L130.267 183.443C129.917 183.143 129.742 182.993 129.594 182.989C129.465 182.986 129.342 183.043 129.26 183.143C129.167 183.258 129.167 183.488 129.167 183.949V187.529C127.388 187.84 125.76 188.741 124.55 190.095C123.231 191.57 122.501 193.48 122.5 195.459V195.969C123.374 194.916 124.466 194.064 125.701 193.472C126.789 192.95 127.965 192.64 129.167 192.559V196.051C129.167 196.512 129.167 196.742 129.26 196.857C129.342 196.957 129.465 197.014 129.594 197.011C129.742 197.007 129.917 196.857 130.267 196.557L137.326 190.506Z" stroke="#98A2B3" stroke-width="1.66667" stroke-linecap="round" stroke-linejoin="round"/>
<rect x="110" y="170" width="40" height="40" rx="20" stroke="#D0D5DD" stroke-linecap="round" stroke-linejoin="round" stroke-dasharray="1 3"/>
</g>
<g filter="url(#filter1_d_1102_4864)">
<rect x="199" y="170" width="40" height="40" rx="20" fill="white"/>
<path d="M219 190.833C219.46 190.833 219.833 190.46 219.833 190C219.833 189.54 219.46 189.167 219 189.167C218.54 189.167 218.167 189.54 218.167 190C218.167 190.46 218.54 190.833 219 190.833Z" stroke="#98A2B3" stroke-width="1.66667" stroke-linecap="round" stroke-linejoin="round"/>
<path d="M224.833 190.833C225.294 190.833 225.667 190.46 225.667 190C225.667 189.54 225.294 189.167 224.833 189.167C224.373 189.167 224 189.54 224 190C224 190.46 224.373 190.833 224.833 190.833Z" stroke="#98A2B3" stroke-width="1.66667" stroke-linecap="round" stroke-linejoin="round"/>
<path d="M213.167 190.833C213.627 190.833 214 190.46 214 190C214 189.54 213.627 189.167 213.167 189.167C212.706 189.167 212.333 189.54 212.333 190C212.333 190.46 212.706 190.833 213.167 190.833Z" stroke="#98A2B3" stroke-width="1.66667" stroke-linecap="round" stroke-linejoin="round"/>
<rect x="199" y="170" width="40" height="40" rx="20" stroke="#D0D5DD" stroke-linecap="round" stroke-linejoin="round" stroke-dasharray="1 3"/>
</g>
<rect x="110" y="226" width="40" height="40" rx="20" fill="#F9FAFB"/>
<path d="M137.326 246.506C137.53 246.332 137.631 246.245 137.669 246.141C137.701 246.05 137.701 245.95 137.669 245.859C137.631 245.755 137.53 245.668 137.326 245.494L130.267 239.443C129.917 239.143 129.742 238.993 129.594 238.989C129.465 238.986 129.342 239.043 129.26 239.143C129.167 239.258 129.167 239.488 129.167 239.949V243.529C127.388 243.84 125.76 244.741 124.55 246.095C123.231 247.57 122.501 249.48 122.5 251.459V251.969C123.374 250.916 124.466 250.064 125.701 249.472C126.789 248.95 127.965 248.64 129.167 248.559V252.051C129.167 252.512 129.167 252.742 129.26 252.857C129.342 252.957 129.465 253.014 129.594 253.011C129.742 253.007 129.917 252.857 130.267 252.557L137.326 246.506Z" stroke="#EAECF0" stroke-width="1.66667" stroke-linecap="round" stroke-linejoin="round"/>
<rect x="110" y="226" width="40" height="40" rx="20" stroke="#EAECF0" stroke-linecap="round" stroke-linejoin="round" stroke-dasharray="1 3"/>
<rect x="199" y="226" width="40" height="40" rx="20" fill="#F9FAFB"/>
<path d="M219 246.833C219.46 246.833 219.833 246.46 219.833 246C219.833 245.54 219.46 245.167 219 245.167C218.54 245.167 218.167 245.54 218.167 246C218.167 246.46 218.54 246.833 219 246.833Z" stroke="#EAECF0" stroke-width="1.66667" stroke-linecap="round" stroke-linejoin="round"/>
<path d="M224.833 246.833C225.294 246.833 225.667 246.46 225.667 246C225.667 245.54 225.294 245.167 224.833 245.167C224.373 245.167 224 245.54 224 246C224 246.46 224.373 246.833 224.833 246.833Z" stroke="#EAECF0" stroke-width="1.66667" stroke-linecap="round" stroke-linejoin="round"/>
<path d="M213.167 246.833C213.627 246.833 214 246.46 214 246C214 245.54 213.627 245.167 213.167 245.167C212.706 245.167 212.333 245.54 212.333 246C212.333 246.46 212.706 246.833 213.167 246.833Z" stroke="#EAECF0" stroke-width="1.66667" stroke-linecap="round" stroke-linejoin="round"/>
<rect x="199" y="226" width="40" height="40" rx="20" stroke="#EAECF0" stroke-linecap="round" stroke-linejoin="round" stroke-dasharray="1 3"/>
<rect x="110" y="89" width="40" height="40" rx="20" fill="#F9FAFB"/>
<path d="M137.326 109.506C137.53 109.332 137.631 109.245 137.669 109.141C137.701 109.05 137.701 108.95 137.669 108.859C137.631 108.755 137.53 108.668 137.326 108.494L130.267 102.443C129.917 102.143 129.742 101.993 129.594 101.989C129.465 101.986 129.342 102.043 129.26 102.143C129.167 102.258 129.167 102.488 129.167 102.949V106.529C127.388 106.84 125.76 107.741 124.55 109.095C123.231 110.57 122.501 112.48 122.5 114.459V114.969C123.374 113.916 124.466 113.064 125.701 112.472C126.789 111.95 127.965 111.64 129.167 111.559V115.051C129.167 115.512 129.167 115.742 129.26 115.857C129.342 115.957 129.465 116.014 129.594 116.011C129.742 116.007 129.917 115.857 130.267 115.557L137.326 109.506Z" stroke="#667085" stroke-width="1.66667" stroke-linecap="round" stroke-linejoin="round"/>
<g filter="url(#filter2_d_1102_4864)">
<path fill-rule="evenodd" clip-rule="evenodd" d="M142.831 127.473C142.553 127.097 142.215 126.328 141.614 125.394C141.274 124.866 140.429 123.871 140.178 123.366C139.96 122.92 139.983 122.72 140.035 122.35C140.127 121.692 140.757 121.179 141.429 121.248C141.937 121.3 142.368 121.659 142.755 121.999C142.989 122.203 143.277 122.6 143.45 122.824C143.609 123.03 143.649 123.115 143.819 123.358C144.044 123.68 144.114 123.839 144.028 123.485C143.959 122.965 143.845 122.077 143.681 121.292C143.556 120.697 143.525 120.604 143.406 120.147C143.28 119.661 143.215 119.32 143.097 118.805C143.015 118.44 142.867 117.695 142.827 117.276C142.771 116.702 142.742 115.768 143.085 115.338C143.354 115.002 143.971 114.9 144.354 115.107C144.855 115.379 145.14 116.159 145.27 116.47C145.504 117.029 145.649 117.676 145.775 118.525C145.935 119.605 146.231 121.105 146.24 121.42C146.264 121.034 146.174 120.219 146.237 119.848C146.293 119.512 146.557 119.121 146.888 119.015C147.168 118.926 147.496 118.894 147.784 118.958C148.091 119.025 148.414 119.259 148.534 119.48C148.888 120.134 148.895 121.471 148.91 121.399C148.994 121.005 148.979 120.111 149.188 119.739C149.325 119.494 149.674 119.273 149.86 119.237C150.147 119.183 150.501 119.166 150.803 119.229C151.047 119.28 151.376 119.591 151.465 119.739C151.679 120.1 151.8 121.119 151.836 121.477C151.851 121.625 151.909 121.066 152.123 120.706C152.52 120.036 153.926 119.906 153.98 121.375C154.004 122.06 154 122.029 154 122.49C154 123.032 153.988 123.358 153.96 123.75C153.93 124.169 153.846 125.116 153.724 125.575C153.64 125.891 153.361 126.6 153.086 127.026C153.086 127.026 152.035 128.336 151.92 128.926C151.805 129.514 151.843 129.519 151.821 129.937C151.798 130.354 151.939 130.903 151.939 130.903C151.939 130.903 151.154 131.012 150.732 130.94C150.349 130.874 149.875 130.058 149.753 129.809C149.585 129.465 149.226 129.531 149.086 129.785C148.866 130.186 148.392 130.906 148.057 130.951C147.404 131.039 146.048 130.984 144.986 130.972C144.986 130.972 145.167 129.913 144.764 129.549C144.466 129.278 143.952 128.727 143.645 128.438L142.831 127.473Z" fill="white"/>
<path fill-rule="evenodd" clip-rule="evenodd" d="M142.831 127.473C142.553 127.097 142.215 126.328 141.614 125.394C141.274 124.866 140.429 123.871 140.178 123.366C139.96 122.92 139.983 122.72 140.035 122.35C140.127 121.692 140.757 121.179 141.429 121.248C141.937 121.3 142.368 121.659 142.755 121.999C142.989 122.203 143.277 122.6 143.45 122.824C143.609 123.03 143.649 123.115 143.819 123.358C144.044 123.68 144.114 123.839 144.028 123.485C143.959 122.965 143.845 122.077 143.681 121.292C143.556 120.697 143.525 120.604 143.406 120.147C143.28 119.661 143.215 119.32 143.097 118.805C143.015 118.44 142.867 117.695 142.827 117.276C142.771 116.702 142.742 115.768 143.085 115.338C143.354 115.002 143.971 114.9 144.354 115.107C144.855 115.379 145.14 116.159 145.27 116.47C145.504 117.029 145.649 117.676 145.775 118.525C145.935 119.605 146.231 121.105 146.24 121.42C146.264 121.034 146.174 120.219 146.237 119.848C146.293 119.512 146.557 119.121 146.888 119.015C147.168 118.926 147.496 118.894 147.784 118.958C148.091 119.025 148.414 119.259 148.534 119.48C148.888 120.134 148.895 121.471 148.91 121.399C148.994 121.005 148.979 120.111 149.188 119.739C149.325 119.494 149.674 119.273 149.86 119.237C150.147 119.183 150.501 119.166 150.803 119.229C151.047 119.28 151.376 119.591 151.465 119.739C151.679 120.1 151.8 121.119 151.836 121.477C151.851 121.625 151.909 121.066 152.123 120.706C152.52 120.036 153.926 119.906 153.98 121.375C154.004 122.06 154 122.029 154 122.49C154 123.032 153.988 123.358 153.96 123.75C153.93 124.169 153.846 125.116 153.724 125.575C153.64 125.891 153.361 126.6 153.086 127.026C153.086 127.026 152.035 128.336 151.92 128.926C151.805 129.514 151.843 129.519 151.821 129.937C151.798 130.354 151.939 130.903 151.939 130.903C151.939 130.903 151.154 131.012 150.732 130.94C150.349 130.874 149.875 130.058 149.753 129.809C149.585 129.465 149.226 129.531 149.086 129.785C148.866 130.186 148.392 130.906 148.057 130.951C147.404 131.039 146.048 130.984 144.986 130.972C144.986 130.972 145.167 129.913 144.764 129.549C144.466 129.278 143.952 128.727 143.645 128.438L142.831 127.473Z" stroke="#101828" stroke-width="0.75" stroke-linecap="round" stroke-linejoin="round"/>
</g>
<path fill-rule="evenodd" clip-rule="evenodd" d="M147 124.5C147 124.224 146.776 124 146.5 124C146.224 124 146 124.224 146 124.5V127.5C146 127.776 146.224 128 146.5 128C146.776 128 147 127.776 147 127.5V124.5ZM148.5 124C148.776 124 149 124.224 149 124.5V127.5C149 127.776 148.776 128 148.5 128C148.224 128 148 127.776 148 127.5V124.5C148 124.224 148.224 124 148.5 124ZM150.5 124C150.776 124 151 124.224 151 124.5V127.5C151 127.776 150.776 128 150.5 128C150.224 128 150 127.776 150 127.5V124.5C150 124.224 150.224 124 150.5 124Z" fill="#101828"/>
<g filter="url(#filter3_dd_1102_4864)">
<rect x="15" y="92" width="85" height="34" rx="8" fill="#101828"/>
<path d="M32.758 106.672C32.7182 106.3 32.5506 106.01 32.2551 105.803C31.9625 105.595 31.5819 105.491 31.1131 105.491C30.7836 105.491 30.5009 105.541 30.2651 105.641C30.0293 105.74 29.8489 105.875 29.7239 106.045C29.5989 106.216 29.535 106.411 29.5321 106.629C29.5321 106.811 29.5733 106.969 29.6557 107.102C29.7409 107.236 29.856 107.349 30.0009 107.443C30.1458 107.534 30.3063 107.611 30.4824 107.673C30.6586 107.736 30.8361 107.788 31.0151 107.831L31.8333 108.036C32.1628 108.112 32.4796 108.216 32.7836 108.347C33.0904 108.477 33.3645 108.642 33.606 108.841C33.8503 109.04 34.0435 109.28 34.1855 109.561C34.3276 109.842 34.3986 110.172 34.3986 110.55C34.3986 111.061 34.2679 111.511 34.0066 111.901C33.7452 112.287 33.3674 112.589 32.873 112.808C32.3816 113.024 31.7864 113.132 31.0875 113.132C30.4086 113.132 29.8191 113.027 29.3191 112.817C28.8219 112.607 28.4327 112.3 28.1515 111.896C27.873 111.493 27.7225 111.001 27.6998 110.422H29.2551C29.2779 110.726 29.3716 110.979 29.5364 111.18C29.7012 111.382 29.9157 111.533 30.1799 111.632C30.4469 111.732 30.7452 111.781 31.0748 111.781C31.4185 111.781 31.7196 111.73 31.9782 111.628C32.2395 111.523 32.4441 111.378 32.5918 111.193C32.7395 111.006 32.8148 110.787 32.8176 110.537C32.8148 110.31 32.748 110.122 32.6174 109.974C32.4867 109.824 32.3034 109.699 32.0676 109.599C31.8347 109.497 31.562 109.406 31.2495 109.327L30.2566 109.071C29.5378 108.886 28.9696 108.607 28.552 108.232C28.1373 107.854 27.9299 107.352 27.9299 106.727C27.9299 106.213 28.0691 105.763 28.3475 105.376C28.6287 104.99 29.0108 104.69 29.4938 104.477C29.9767 104.261 30.5236 104.153 31.1344 104.153C31.7537 104.153 32.2963 104.261 32.7623 104.477C33.231 104.69 33.5989 104.987 33.8659 105.368C34.133 105.746 34.2708 106.18 34.2793 106.672H32.758ZM37.2825 109.165V113H35.7399V104.273H37.2484V107.567H37.3251C37.4785 107.197 37.7157 106.906 38.0368 106.693C38.3606 106.477 38.7725 106.369 39.2725 106.369C39.7271 106.369 40.1234 106.464 40.4615 106.655C40.7995 106.845 41.0609 107.124 41.2456 107.49C41.4331 107.857 41.5268 108.304 41.5268 108.832V113H39.9842V109.071C39.9842 108.631 39.8706 108.288 39.6433 108.044C39.4189 107.797 39.1035 107.673 38.6973 107.673C38.4245 107.673 38.1802 107.733 37.9643 107.852C37.7512 107.969 37.5836 108.138 37.4615 108.359C37.3422 108.581 37.2825 108.849 37.2825 109.165ZM44.9828 113.132C44.568 113.132 44.1944 113.058 43.862 112.911C43.5325 112.76 43.2711 112.538 43.0779 112.246C42.8876 111.953 42.7924 111.592 42.7924 111.163C42.7924 110.794 42.8606 110.489 42.997 110.247C43.1333 110.006 43.3194 109.812 43.5552 109.668C43.791 109.523 44.0566 109.413 44.3521 109.339C44.6504 109.263 44.9586 109.207 45.2768 109.173C45.6603 109.134 45.9714 109.098 46.21 109.067C46.4487 109.033 46.622 108.982 46.7299 108.913C46.8407 108.842 46.8961 108.733 46.8961 108.585V108.56C46.8961 108.239 46.801 107.99 46.6106 107.814C46.4203 107.638 46.1461 107.55 45.7882 107.55C45.4103 107.55 45.1106 107.632 44.889 107.797C44.6703 107.962 44.5225 108.156 44.4458 108.381L43.0055 108.176C43.1191 107.778 43.3066 107.446 43.568 107.179C43.8294 106.909 44.149 106.707 44.5268 106.574C44.9047 106.438 45.3223 106.369 45.7797 106.369C46.095 106.369 46.4089 106.406 46.7214 106.48C47.0339 106.554 47.3194 106.676 47.5779 106.847C47.8365 107.014 48.0439 107.243 48.2001 107.533C48.3592 107.822 48.4387 108.185 48.4387 108.619V113H46.9558V112.101H46.9047C46.8109 112.283 46.6788 112.453 46.5083 112.612C46.3407 112.768 46.1291 112.895 45.8734 112.991C45.6206 113.085 45.3237 113.132 44.9828 113.132ZM45.3833 111.999C45.693 111.999 45.9615 111.937 46.1887 111.815C46.416 111.69 46.5907 111.526 46.7129 111.321C46.8379 111.116 46.9004 110.893 46.9004 110.652V109.881C46.8521 109.92 46.7697 109.957 46.6532 109.991C46.5396 110.026 46.4118 110.055 46.2697 110.081C46.1277 110.107 45.987 110.129 45.8478 110.149C45.7086 110.169 45.5879 110.186 45.4856 110.2C45.2555 110.232 45.0495 110.283 44.8677 110.354C44.6859 110.425 44.5424 110.524 44.4373 110.652C44.3322 110.777 44.2797 110.939 44.2797 111.138C44.2797 111.422 44.3833 111.636 44.5907 111.781C44.7981 111.926 45.0623 111.999 45.3833 111.999ZM49.9899 113V106.455H51.4856V107.545H51.5538C51.6731 107.168 51.8777 106.876 52.1674 106.672C52.46 106.464 52.7939 106.361 53.1689 106.361C53.2541 106.361 53.3493 106.365 53.4544 106.374C53.5623 106.379 53.6518 106.389 53.7228 106.403V107.822C53.6575 107.8 53.5538 107.78 53.4118 107.763C53.2725 107.743 53.1376 107.733 53.0069 107.733C52.7257 107.733 52.4728 107.794 52.2484 107.916C52.0268 108.036 51.8521 108.202 51.7243 108.415C51.5964 108.628 51.5325 108.874 51.5325 109.152V113H49.9899ZM57.3759 113.128C56.7196 113.128 56.1529 112.991 55.6756 112.719C55.2012 112.443 54.8361 112.054 54.5804 111.551C54.3248 111.045 54.1969 110.45 54.1969 109.766C54.1969 109.092 54.3248 108.501 54.5804 107.993C54.839 107.482 55.1998 107.084 55.6628 106.8C56.1259 106.513 56.6699 106.369 57.2949 106.369C57.6983 106.369 58.079 106.435 58.437 106.565C58.7978 106.693 59.1159 106.892 59.3915 107.162C59.6699 107.432 59.8887 107.776 60.0478 108.193C60.2069 108.608 60.2864 109.102 60.2864 109.676V110.149H54.9213V109.109H58.8077C58.8049 108.814 58.7409 108.551 58.6159 108.321C58.4909 108.088 58.3162 107.905 58.0918 107.771C57.8702 107.638 57.6117 107.571 57.3162 107.571C57.0009 107.571 56.7239 107.648 56.4853 107.801C56.2466 107.952 56.0605 108.151 55.927 108.398C55.7963 108.642 55.7296 108.911 55.7267 109.203V110.111C55.7267 110.491 55.7963 110.818 55.9355 111.091C56.0748 111.361 56.2694 111.568 56.5194 111.713C56.7694 111.855 57.062 111.926 57.3972 111.926C57.6216 111.926 57.8248 111.895 58.0066 111.832C58.1884 111.767 58.3461 111.672 58.4796 111.547C58.6131 111.422 58.714 111.267 58.7821 111.082L60.2225 111.244C60.1316 111.625 59.9583 111.957 59.7026 112.241C59.4498 112.523 59.1259 112.741 58.731 112.898C58.3361 113.051 57.8844 113.128 57.3759 113.128ZM64.6362 113V104.273H66.2172V111.675H70.0609V113H64.6362ZM71.3649 113V106.455H72.9075V113H71.3649ZM72.1404 105.526C71.8961 105.526 71.6859 105.445 71.5098 105.283C71.3336 105.118 71.2456 104.92 71.2456 104.69C71.2456 104.457 71.3336 104.26 71.5098 104.098C71.6859 103.933 71.8961 103.851 72.1404 103.851C72.3876 103.851 72.5978 103.933 72.7711 104.098C72.9473 104.26 73.0353 104.457 73.0353 104.69C73.0353 104.92 72.9473 105.118 72.7711 105.283C72.5978 105.445 72.3876 105.526 72.1404 105.526ZM76.0364 109.165V113H74.4938V106.455H75.9682V107.567H76.0449C76.1955 107.2 76.4355 106.909 76.7651 106.693C77.0975 106.477 77.508 106.369 77.9966 106.369C78.4483 106.369 78.8418 106.466 79.177 106.659C79.5151 106.852 79.7765 107.132 79.9611 107.499C80.1486 107.865 80.2409 108.31 80.2381 108.832V113H78.6955V109.071C78.6955 108.634 78.5819 108.291 78.3546 108.044C78.1301 107.797 77.8191 107.673 77.4213 107.673C77.1515 107.673 76.9114 107.733 76.7012 107.852C76.4938 107.969 76.3304 108.138 76.2111 108.359C76.0946 108.581 76.0364 108.849 76.0364 109.165ZM83.2125 110.946L83.2083 109.084H83.4554L85.8077 106.455H87.6103L84.7168 109.676H84.3972L83.2125 110.946ZM81.8063 113V104.273H83.3489V113H81.8063ZM85.9142 113L83.7836 110.021L84.8233 108.935L87.7594 113H85.9142Z" fill="white"/>
<path d="M97.4853 102.929C97.4853 102.038 98.5624 101.592 99.1924 102.222L105.263 108.293C105.654 108.683 105.654 109.317 105.263 109.707L99.1924 115.778C98.5624 116.408 97.4853 115.962 97.4853 115.071L97.4853 102.929Z" fill="#101828"/>
</g>
<rect x="110" y="89" width="40" height="40" rx="20" stroke="#D0D5DD" stroke-linecap="round" stroke-linejoin="round" stroke-dasharray="1 3"/>
<rect x="199" y="89" width="40" height="40" rx="20" fill="#F9FAFB"/>
<path d="M219 109.833C219.46 109.833 219.833 109.46 219.833 109C219.833 108.54 219.46 108.167 219 108.167C218.54 108.167 218.167 108.54 218.167 109C218.167 109.46 218.54 109.833 219 109.833Z" stroke="#667085" stroke-width="1.66667" stroke-linecap="round" stroke-linejoin="round"/>
<path d="M224.833 109.833C225.294 109.833 225.667 109.46 225.667 109C225.667 108.54 225.294 108.167 224.833 108.167C224.373 108.167 224 108.54 224 109C224 109.46 224.373 109.833 224.833 109.833Z" stroke="#667085" stroke-width="1.66667" stroke-linecap="round" stroke-linejoin="round"/>
<path d="M213.167 109.833C213.627 109.833 214 109.46 214 109C214 108.54 213.627 108.167 213.167 108.167C212.706 108.167 212.333 108.54 212.333 109C212.333 109.46 212.706 109.833 213.167 109.833Z" stroke="#667085" stroke-width="1.66667" stroke-linecap="round" stroke-linejoin="round"/>
<rect x="199" y="89" width="40" height="40" rx="20" stroke="#D0D5DD" stroke-linecap="round" stroke-linejoin="round" stroke-dasharray="1 3"/>
<rect x="0.5" y="0.5" width="432" height="281" rx="4.5" stroke="#7B61FF" stroke-dasharray="10 5"/>
<defs>
<filter id="filter0_d_1102_4864" x="105.5" y="165.5" width="49" height="49" filterUnits="userSpaceOnUse" color-interpolation-filters="sRGB">
<feFlood flood-opacity="0" result="BackgroundImageFix"/>
<feColorMatrix in="SourceAlpha" type="matrix" values="0 0 0 0 0 0 0 0 0 0 0 0 0 0 0 0 0 0 127 0" result="hardAlpha"/>
<feMorphology radius="4" operator="dilate" in="SourceAlpha" result="effect1_dropShadow_1102_4864"/>
<feOffset/>
<feColorMatrix type="matrix" values="0 0 0 0 0.949765 0 0 0 0 0.955804 0 0 0 0 0.967882 0 0 0 1 0"/>
<feBlend mode="normal" in2="BackgroundImageFix" result="effect1_dropShadow_1102_4864"/>
<feBlend mode="normal" in="SourceGraphic" in2="effect1_dropShadow_1102_4864" result="shape"/>
</filter>
<filter id="filter1_d_1102_4864" x="194.5" y="165.5" width="49" height="49" filterUnits="userSpaceOnUse" color-interpolation-filters="sRGB">
<feFlood flood-opacity="0" result="BackgroundImageFix"/>
<feColorMatrix in="SourceAlpha" type="matrix" values="0 0 0 0 0 0 0 0 0 0 0 0 0 0 0 0 0 0 127 0" result="hardAlpha"/>
<feMorphology radius="4" operator="dilate" in="SourceAlpha" result="effect1_dropShadow_1102_4864"/>
<feOffset/>
<feColorMatrix type="matrix" values="0 0 0 0 0.949765 0 0 0 0 0.955804 0 0 0 0 0.967882 0 0 0 1 0"/>
<feBlend mode="normal" in2="BackgroundImageFix" result="effect1_dropShadow_1102_4864"/>
<feBlend mode="normal" in="SourceGraphic" in2="effect1_dropShadow_1102_4864" result="shape"/>
</filter>
<filter id="filter2_d_1102_4864" x="137.625" y="113.625" width="18.7499" height="20.75" filterUnits="userSpaceOnUse" color-interpolation-filters="sRGB">
<feFlood flood-opacity="0" result="BackgroundImageFix"/>
<feColorMatrix in="SourceAlpha" type="matrix" values="0 0 0 0 0 0 0 0 0 0 0 0 0 0 0 0 0 0 127 0" result="hardAlpha"/>
<feOffset dy="1"/>
<feGaussianBlur stdDeviation="1"/>
<feColorMatrix type="matrix" values="0 0 0 0 0 0 0 0 0 0 0 0 0 0 0 0 0 0 0.24 0"/>
<feBlend mode="normal" in2="BackgroundImageFix" result="effect1_dropShadow_1102_4864"/>
<feBlend mode="normal" in="SourceGraphic" in2="effect1_dropShadow_1102_4864" result="shape"/>
</filter>
<filter id="filter3_dd_1102_4864" x="3" y="92" width="115" height="58" filterUnits="userSpaceOnUse" color-interpolation-filters="sRGB">
<feFlood flood-opacity="0" result="BackgroundImageFix"/>
<feColorMatrix in="SourceAlpha" type="matrix" values="0 0 0 0 0 0 0 0 0 0 0 0 0 0 0 0 0 0 127 0" result="hardAlpha"/>
<feMorphology radius="2" operator="erode" in="SourceAlpha" result="effect1_dropShadow_1102_4864"/>
<feOffset dy="4"/>
<feGaussianBlur stdDeviation="3"/>
<feColorMatrix type="matrix" values="0 0 0 0 0.0627451 0 0 0 0 0.0941176 0 0 0 0 0.156863 0 0 0 0.03 0"/>
<feBlend mode="normal" in2="BackgroundImageFix" result="effect1_dropShadow_1102_4864"/>
<feColorMatrix in="SourceAlpha" type="matrix" values="0 0 0 0 0 0 0 0 0 0 0 0 0 0 0 0 0 0 127 0" result="hardAlpha"/>
<feMorphology radius="4" operator="erode" in="SourceAlpha" result="effect2_dropShadow_1102_4864"/>
<feOffset dy="12"/>
<feGaussianBlur stdDeviation="8"/>
<feColorMatrix type="matrix" values="0 0 0 0 0.0627451 0 0 0 0 0.0941176 0 0 0 0 0.156863 0 0 0 0.08 0"/>
<feBlend mode="normal" in2="effect1_dropShadow_1102_4864" result="effect2_dropShadow_1102_4864"/>
<feBlend mode="normal" in="SourceGraphic" in2="effect2_dropShadow_1102_4864" result="shape"/>
</filter>
</defs>
</svg>
